<?xml version="1.0" encoding="utf-8"?>
<!-- Generator: Adobe Illustrator 25.2.0, SVG Export Plug-In . SVG Version: 6.00 Build 0)  -->
<svg version="1.1" id="Capa_1" xmlns="http://www.w3.org/2000/svg" xmlns:xlink="http://www.w3.org/1999/xlink" x="0px" y="0px"
	 viewBox="0 0 390 390" style="enable-background:new 0 0 390 390;" xml:space="preserve">
<style type="text/css">
	.st0{fill:#FFFFFF;stroke:#000000;stroke-width:4;stroke-miterlimit:10;}
</style>
<g>
	<path class="st0" d="M145.4,249l-2.8,26.2c-0.2,2.1,0.5,4.2,1.9,5.8c1.4,1.6,3.4,2.5,5.6,2.5h79.3c2.1,0,4.2-0.9,5.6-2.5
		c1.4-1.6,2.1-3.7,1.9-5.8l-2.8-26.2h98.8c15.4,0,27.9-12.5,27.9-27.9V27.9c0-15.4-12.5-27.9-27.9-27.9H40.6
		C25.3,0,12.7,12.5,12.7,27.9v193.2c0,15.4,12.5,27.9,27.9,27.9L145.4,249L145.4,249z M221.1,268.5h-62.6l2.1-19.5H219L221.1,268.5z
		 M40.6,15h292.2c7.1,0,12.9,5.8,12.9,12.9V198h-318V27.9C27.7,20.8,33.5,15,40.6,15z M27.7,221.1V213h318v8.1
		c0,7.1-5.8,12.9-12.9,12.9H40.6C33.5,234,27.7,228.2,27.7,221.1z"/>
	<path class="st0" d="M332.6,333.9c1.4-2.2,1.5-5,0.2-7.4L318.1,298c-1.3-2.5-3.9-4-6.7-4H62.1c-2.8,0-5.4,1.6-6.7,4l-14.8,28.5
		c-1.2,2.3-1.1,5.1,0.2,7.4s3.8,3.6,6.4,3.6h279C328.9,337.5,331.3,336.1,332.6,333.9z M59.6,322.5l7-13.5h240.3l7,13.5H59.6z"/>
	<path class="st0" d="M345.7,351h-12c-17.4,0-31.5,14.1-31.5,31.5c0,4.1,3.4,7.5,7.5,7.5h60c4.1,0,7.5-3.4,7.5-7.5
		C377.2,365.1,363.1,351,345.7,351z M319,375c2.7-5.3,8.3-9,14.7-9h12c6.4,0,12,3.7,14.7,9H319z"/>
</g>
</svg>
