<?xml version="1.0" encoding="utf-8"?>
<!-- Generator: Adobe Illustrator 25.2.0, SVG Export Plug-In . SVG Version: 6.00 Build 0)  -->
<svg version="1.1" id="Capa_1" xmlns="http://www.w3.org/2000/svg" xmlns:xlink="http://www.w3.org/1999/xlink" x="0px" y="0px"
	 viewBox="0 0 512 512" style="enable-background:new 0 0 512 512;" xml:space="preserve">
<style type="text/css">
	.st0{fill:#FFFFFF;stroke:#000000;stroke-width:4;stroke-miterlimit:10;}
</style>
<g>
	<g>
		<g>
			<path class="st0" d="M365.9,198.7L256,262.8l-109.9-64.1c-9.5-5.6-21.8-2.3-27.4,7.2c-5.6,9.5-2.3,21.8,7.2,27.4l120,70
				c6.2,3.6,13.9,3.6,20.2,0l120-70c9.5-5.6,12.8-17.8,7.2-27.4C387.7,196.4,375.5,193.2,365.9,198.7z"/>
			<path class="st0" d="M452,76H60c-33.1,0-60,26.9-60,60v240c0,33.1,26.9,60,60,60h392c33.1,0,60-26.9,60-60V136
				C512,102.9,485.1,76,452,76z M472,376c0,11-9,20-20,20H60c-11,0-20-9-20-20V136c0-11,9-20,20-20h392c11,0,20,9,20,20V376z"/>
		</g>
	</g>
</g>
</svg>
